<svg xmlns="http://www.w3.org/2000/svg" xml:space="preserve" id="Laag_1" x="0" y="0" version="1.1" viewBox="0 0 200.9 50.5"><style>.st0{fill:#808080;}
	.st1{fill:#A70967;}
	.st2{fill:#151515;}</style><path d="M59.9 35.7c.5-.3 1-.5 1.7-.5.6 0 1.2.1 1.6.4.5.3.8.7 1.2 1.3.6 1.2.6 2.5 0 3.7-.2.6-.7.9-1.2 1.3-.5.3-1 .5-1.6.5-.7 0-1.2-.1-1.6-.5-.5-.3-.8-.7-1-1.2v4.7h-.8v-10h.8v1.5c0-.5.4-.9.9-1.2zm3.8 1.5c-.2-.4-.6-.7-.9-.9-.4-.2-.8-.3-1.3-.3s-.8.1-1.3.3c-.4.2-.7.6-.9.9-.2.5-.3.9-.3 1.5 0 .5.1 1 .3 1.4.2.4.6.7.9.9.4.2.8.3 1.3.3s.9-.1 1.3-.3c.4-.2.7-.6.9-.9.3-.8.3-1.9 0-2.9zm2.8-.3c.2-.6.7-.9 1.2-1.3.6-.3 1-.5 1.7-.4.7 0 1.2.1 1.7.5.5.2.8.7 1 1.2v-1.5h.9v6.9h-.8v-1.5c-.2.5-.6.8-1 1.2-.4.3-1 .5-1.7.5-.6 0-1.2-.1-1.6-.5-.5-.3-.9-.7-1.2-1.3-.7-1.2-.7-2.6-.2-3.8zm5.4.4c-.2-.4-.6-.7-.9-.9-.4-.2-.8-.3-1.3-.3s-.9.1-1.3.3c-.4.2-.7.6-.9.9-.5.9-.5 2.1 0 3 .2.4.6.7.9.9.4.2.8.3 1.3.3s.8-.1 1.3-.3c.4-.2.7-.6.9-.9.2-.5.3-.9.3-1.4-.1-.5-.1-1.1-.3-1.6zm4.9-1.7c.5-.2.9-.4 1.5-.4v.8H78c-1-.1-2.1.7-2.2 1.7v4.5H75v-6.9h.8v1.2c.3-.3.7-.7 1-.9zm3.9.5v4.3c-.1.5.1 1 .7 1h1.2v.8h-.9c-.5 0-1-.1-1.4-.5-.3-.4-.5-.9-.5-1.4V36h-.9v-.7h.9v-1.7h.8v1.7h1.9v.7l-1.8.1zm8.2 5.8c-.6-.3-.9-.7-1.3-1.3-.3-.6-.5-1.2-.5-1.9s.1-1.3.5-1.9c.3-.6.7-.9 1.2-1.3 1-.6 2.5-.6 3.5 0 .6.3.9.7 1.3 1.3.3.6.5 1.3.5 1.9s-.1 1.3-.5 1.9c-.3.6-.7.9-1.3 1.3-.6.3-1.2.5-1.7.5-.6-.1-1.1-.1-1.7-.5zm3-.5c.4-.2.7-.6.9-.9.2-.5.4-1 .4-1.5 0-.6-.1-1-.3-1.6-.2-.4-.6-.7-.9-.8-.8-.4-1.7-.4-2.5 0-.4.2-.7.6-.9.9-.2.5-.4 1-.3 1.6 0 .6.1 1 .3 1.5.2.4.6.7.9.9.4.2.8.3 1.3.3.3-.1.8-.2 1.1-.4zm6.6-5.3h-1.6v6.1h-.8v-6.1h-.9v-.7h.9v-.5c-.1-.7.1-1.2.6-1.6.6-.4 1.2-.6 1.8-.6v.8c-.4-.1-.8.1-1.2.3-.2.3-.4.7-.3 1v.5h1.6l-.1.8zm3.6 4.5v-1.7l4-5.8h2.5v5.7h1v1.9h-1v1.6h-2.2v-1.6l-4.3-.1zm4.5-5.1-2.2 3.2h2.2v-3.2zm12.2 6.8h-2.2l-3.7-5.5v5.5h-2.2v-8.8h2.2l3.7 5.5v-5.5h2.2v8.8zm7.5-6.1c-.1-.3-.4-.6-.7-.7-.3-.1-.7-.2-1-.2-.7 0-1.3.2-1.6.7-.5.5-.7 1.2-.7 1.8-.1.7.1 1.4.7 1.9s1.2.7 1.8.7c.5 0 .9-.1 1.3-.4.4-.3.7-.7.8-1.2h-2.8v-1.6h4.7v2c-.1.6-.4 1-.8 1.5s-.8.8-1.4 1c-.7.3-1.3.5-2 .5-.8 0-1.6-.1-2.4-.6-.7-.4-1.2-.9-1.6-1.6-.8-1.5-.8-3.2 0-4.6.4-.7.9-1.2 1.6-1.6.7-.4 1.6-.6 2.4-.6.9 0 1.9.2 2.7.8.7.5 1.3 1.3 1.4 2.2h-2.4z" class="st0"/><path d="M32.6 39.3c-.4-.3-3.3-.3-8.7-.3-3.7 0-5.7.1-5.9.3-.4.4-.8 1.5-1.2 3.5-.1.7-.4 1.3-.7 2 2.1 1.4 4 2.8 5.7 3.8 1 .7 2.3 1 3.5 1s2.4-.3 3.5-1c1.6-1 3.6-2.3 5.8-3.8-.1-.2-.1-.3-.2-.5-.8-3.2-1.4-4.8-1.8-5zM18.7.8c-5.8.3-11.7 1-16.2 2.5-1.2.5-2.1 1.6-2.1 3v.3C1 21.1 3.7 34.1 4.9 35.3c.2.3.5.5.8.9 1.2-3.2 2.5-7.2 4.4-12 5-13.4 8-21.2 8.6-23.4zM50 6.6v-.2c0-1.4-.8-2.5-2-3C43.5 1.9 37.5 1.1 31.8.9 33 3.6 36.1 11.4 40.9 24c1.9 4.7 3.4 8.7 4.6 11.9.1-.1.2-.2.3-.4C46.9 34 49.5 21.1 50 6.6zm-24.5 8.6c-.4 1-1.2 3.1-2.3 6.2-1.2 3.4-1.7 5.4-1.7 6 0 .4.7.7 2 .7.7 0 1.7.1 3.4.1 1.5 0 2.3-.2 2.4-.5.1-.1.1-.3.1-.4 0-.7-.5-2.7-1.4-6-1-2.2-1.7-4.1-2.5-6.1z" class="st1"/><path d="M72.2 22.7h-6l-1.1 4.8h-7l5.7-20.2c.1-.6.4-1 .9-1.2.4-.3 1-.6 1.4-.6h6.2c.6 0 1.1.1 1.4.6.4.3.8.8.9 1.2l5.7 20.1h-7l-1.1-4.7zm-1.1-4.9-1.6-7.2h-.7l-1.6 7.2h3.9zm30.1 9.6h-7.3L92.5 21c-.1-.7-.3-1-.6-1.1-.3-.2-.8-.3-1.2-.3h-2.1v8h-6.8v-22h9.7c3.3 0 5.4.2 6.8 1.1 1.4 1 2.1 2.8 2.1 5.2 0 3.2-1.4 5-4.4 5.2v.2c2 .2 3.2 1.3 3.6 3.3l1.6 6.8zM88.5 14.6h2.3c1 0 1.7-.1 2-.4.3-.3.6-1 .6-1.8 0-1-.1-1.4-.6-1.8-.3-.3-.9-.4-2-.4h-2.3v4.4zm21.2-9v15.3c0 .3.1.7.3.9.2.2.6.3 1 .3h6.8l-1.6 5.4h-8.3c-1.6 0-2.8-.3-3.6-1.2-1-1-1.4-2.1-1.4-3.6V5.6h6.8zm22.1 17.1h-6l-1.1 4.8h-7l5.7-20.1c.1-.6.4-1 .9-1.2.4-.3 1-.6 1.4-.6h6.2c.6 0 1.1.1 1.4.6.4.3.8.8.9 1.2l5.7 20.1h-7l-1.1-4.8zm-1.2-4.9-1.6-7.2h-.7l-1.6 7.2h3.9zm30.9-12.2v19.6c0 1.6-.8 2.3-2.3 2.3h-2.7c-.7 0-1.1-.1-1.4-.4-.3-.3-.8-.9-1.1-1.6l-6.1-9.9v12h-6.3V7.9c0-1.6.8-2.3 2.3-2.3h2.7c.7 0 1.1.1 1.4.4.3.3.8.9 1.1 1.6l6.1 9.9V5.6h6.3zm18.4 16.6v5.2h-11.1c-1.4 0-2.8-.3-3.7-1.2-1-1-1.4-2.1-1.4-3.6V10.4c0-1.4.6-2.7 1.4-3.6 1-1 2.1-1.2 3.6-1.2h11.2v5.2h-8c-.4 0-.8.1-1 .3s-.3.6-.3.9v2.1h8.2v4.6h-8.2v2.7c0 .3.1.7.3.9s.6.3 1 .3h8v-.4zm20.6-11.6h-6.1v16.8h-6.9V10.6h-6.2V5.4h19.1v5.1h.1v.1z" class="st2"/></svg>