<svg width="24" height="24" fill="none" xmlns="http://www.w3.org/2000/svg">
<path fill-rule="evenodd" clip-rule="evenodd" d="M19.9688 12.7216C20.323 12.3674 20.356 11.8135 20.0677 11.4222C20.0381 11.3821 20.0051 11.3437 19.9688 11.3073L19.9688 11.3073L19.2617 10.6002L19.2613 10.5998L15.0191 6.35759C14.6286 5.96707 13.9954 5.96707 13.6049 6.35759L12.8978 7.0647C12.5072 7.45522 12.5072 8.08839 12.8978 8.47891L14.9333 10.5144H6.55457C6.00228 10.5144 5.55457 10.9622 5.55457 11.5144V12.5144C5.55457 13.0667 6.00228 13.5144 6.55457 13.5144H14.9333L12.8977 15.55C12.5072 15.9405 12.5072 16.5737 12.8977 16.9642L13.6048 17.6713C13.9954 18.0618 14.6285 18.0618 15.0191 17.6713L19.2566 13.4337L19.2617 13.4287L19.9688 12.7216Z" fill="currentColor"/>
</svg>
