<svg width="24" height="24" fill="none" xmlns="http://www.w3.org/2000/svg">
<path fill-rule="evenodd" clip-rule="evenodd" d="M4.93938 12.7216C4.58518 12.3674 4.55223 11.8135 4.84054 11.4222C4.87011 11.3821 4.90305 11.3437 4.93938 11.3073L4.9394 11.3073L5.6465 10.6002L5.64693 10.5998L9.88912 6.35759C10.2796 5.96707 10.9128 5.96707 11.3033 6.35759L12.0104 7.0647C12.401 7.45522 12.401 8.08839 12.0104 8.47891L9.97491 10.5144H18.3536C18.9059 10.5144 19.3536 10.9622 19.3536 11.5144V12.5144C19.3536 13.0667 18.9059 13.5144 18.3536 13.5144H9.97494L12.0105 15.55C12.401 15.9405 12.401 16.5737 12.0105 16.9642L11.3034 17.6713C10.9128 18.0618 10.2797 18.0618 9.88914 17.6713L5.65157 13.4337L5.64648 13.4287L4.93938 12.7216Z" fill="currentColor"/>
</svg>
