<svg width="24" height="24" fill="currentColor" xmlns="http://www.w3.org/2000/svg">
<path fill-rule="evenodd" clip-rule="evenodd" d="M8.11087 5.63603C7.72034 5.24551 7.08718 5.24551 6.69666 5.63603L5.98955 6.34314C5.59902 6.73366 5.59902 7.36683 5.98955 7.75735L9.87869 11.6465L5.98959 15.5356C5.59907 15.9261 5.59907 16.5593 5.98959 16.9498L6.6967 17.6569C7.08722 18.0474 7.72039 18.0474 8.11091 17.6569L12 13.7678L15.889 17.6568C16.2796 18.0474 16.9127 18.0474 17.3033 17.6568L18.0104 16.9497C18.4009 16.5592 18.4009 15.9261 18.0104 15.5355L14.1213 11.6465L18.0104 7.75741C18.4009 7.36689 18.4009 6.73372 18.0104 6.3432L17.3033 5.63609C16.9128 5.24557 16.2796 5.24557 15.8891 5.63609L12 9.52517L8.11087 5.63603Z" fill="currentColor"/>
</svg>
