<svg width="24" height="4" fill="none" xmlns="http://www.w3.org/2000/svg">
<path fill-rule="evenodd" clip-rule="evenodd" d="M1.5 11.5234C0.671573 11.5234 0 12.195 0 13.0234C0 13.8519 0.671573 14.5234 1.5 14.5234H11V23.0234C11 23.8519 11.6716 24.5234 12.5 24.5234C13.3284 24.5234 14 23.8519 14 23.0234V14.5234L22.5 14.5234C23.3284 14.5234 24 13.8519 24 13.0234C24 12.195 23.3284 11.5234 22.5 11.5234L14 11.5234L14 2.02344C14 1.19501 13.3284 0.523438 12.5 0.523438C11.6716 0.523438 11 1.19501 11 2.02344L11 11.5234H1.5Z" fill="currentColor"/>
</svg>
