<svg width="24" height="24" fill="none" xmlns="http://www.w3.org/2000/svg">
<path fill-rule="evenodd" clip-rule="evenodd" d="M7.25 10.9362C7.25 8.63704 9.11385 6.77319 11.413 6.77319C13.7122 6.77319 15.576 8.63704 15.576 10.9362C15.576 13.2354 13.7122 15.0992 11.413 15.0992C9.11385 15.0992 7.25 13.2354 7.25 10.9362ZM11.413 3.77319C7.457 3.77319 4.25 6.98019 4.25 10.9362C4.25 14.8922 7.457 18.0992 11.413 18.0992C12.8483 18.0992 14.185 17.6771 15.3057 16.9502L17.1889 18.8334C17.5794 19.2239 18.2126 19.2239 18.6031 18.8334L19.3102 18.1263C19.7007 17.7357 19.7007 17.1026 19.3102 16.7121L17.427 14.8289C18.1539 13.7082 18.576 12.3715 18.576 10.9362C18.576 6.98019 15.3691 3.77319 11.413 3.77319Z" fill="currentColor"/>
</svg>
